{
  "accessors": [
    {
      "bufferView": 2,
      "componentType": 5126,
      "count": 58823,
      "max": [
        1.5922249555587769,
        1.609956979751587,
        1.8366520404815674
      ],
      "min": [
        -1.5922249555587769,
        -1.609956979751587,
        -1.8366520404815674
      ],
      "type": "VEC3"
    },
    {
      "bufferView": 2,
      "byteOffset": 705876,
      "componentType": 5126,
      "count": 58823,
      "max": [
        0.999984622001648,
        0.9999986886978149,
        0.9999736547470093
      ],
      "min": [
        -0.9999991655349731,
        -0.9999281167984009,
        -0.9999986290931702
      ],
      "type": "VEC3"
    },
    {
      "bufferView": 1,
      "componentType": 5126,
      "count": 58823,
      "max": [
        0.9967020153999329,
        1.0000029802322388
      ],
      "min": [
        0.0025889999233186245,
        0.0033370000310242176
      ],
      "type": "VEC2"
    },
    {
      "bufferView": 0,
      "componentType": 5125,
      "count": 272013,
      "type": "SCALAR"
    }
  ],
  "asset": {
    "extras": {
      "author": "Joakim Hjelm (https://sketchfab.com/joakim_hjelm)",
      "license": "CC-BY-4.0 (http://creativecommons.org/licenses/by/4.0/)",
      "source": "https://sketchfab.com/3d-models/gingerbread-house-03b00c2e279645cf918206daa380d8bb",
      "title": "Gingerbread House!"
    },
    "generator": "Sketchfab-12.68.0",
    "version": "2.0"
  },
  "bufferViews": [
    {
      "buffer": 0,
      "byteLength": 1088052,
      "name": "floatBufferViews",
      "target": 34963
    },
    {
      "buffer": 0,
      "byteLength": 470584,
      "byteOffset": 1088052,
      "byteStride": 8,
      "name": "floatBufferViews",
      "target": 34962
    },
    {
      "buffer": 0,
      "byteLength": 1411752,
      "byteOffset": 1558636,
      "byteStride": 12,
      "name": "floatBufferViews",
      "target": 34962
    }
  ],
  "buffers": [
    {
      "byteLength": 2970388,
      "uri": "scene.bin"
    }
  ],
  "extensionsUsed": [
    "KHR_materials_unlit"
  ],
  "images": [
    {
      "uri": "textures/model_baseColor.jpeg"
    }
  ],
  "materials": [
    {
      "doubleSided": true,
      "extensions": {
        "KHR_materials_unlit": {}
      },
      "name": "model",
      "pbrMetallicRoughness": {
        "baseColorTexture": {
          "index": 0
        },
        "metallicFactor": 0.0
      }
    }
  ],
  "meshes": [
    {
      "name": "Object_0",
      "primitives": [
        {
          "attributes": {
            "NORMAL": 1,
            "POSITION": 0,
            "TEXCOORD_0": 2
          },
          "indices": 3,
          "material": 0,
          "mode": 4
        }
      ]
    }
  ],
  "nodes": [
    {
      "children": [
        1
      ],
      "matrix": [
        1.0,
        0.0,
        0.0,
        0.0,
        0.0,
        0.9570348858833314,
        -0.28997278213500954,
        0.0,
        0.0,
        0.28997278213500954,
        0.9570348858833314,
        0.0,
        0.0,
        6.642651442234638e-06,
        -3.8275293263723126e-06,
        1.0
      ],
      "name": "Sketchfab_model"
    },
    {
      "children": [
        2
      ],
      "name": "model.obj.cleaner.materialmerger.gles"
    },
    {
      "mesh": 0,
      "name": "Object_2"
    }
  ],
  "samplers": [
    {
      "magFilter": 9729,
      "minFilter": 9987,
      "wrapS": 10497,
      "wrapT": 10497
    }
  ],
  "scene": 0,
  "scenes": [
    {
      "name": "Sketchfab_Scene",
      "nodes": [
        0
      ]
    }
  ],
  "textures": [
    {
      "sampler": 0,
      "source": 0
    }
  ]
}
