{
  "accessors": [
    {
      "bufferView": 2,
      "componentType": 5126,
      "count": 36544,
      "max": [
        13.095565795898438,
        7.68796443939209,
        13.12643814086914
      ],
      "min": [
        -13.095565795898438,
        4.76837158203125e-07,
        -13.12643814086914
      ],
      "type": "VEC3"
    },
    {
      "bufferView": 2,
      "byteOffset": 438528,
      "componentType": 5126,
      "count": 36544,
      "max": [
        0.9999884963035583,
        0.9999986290931702,
        0.9999829530715942
      ],
      "min": [
        -0.9999628067016602,
        -0.9999203085899353,
        -0.9995632171630859
      ],
      "type": "VEC3"
    },
    {
      "bufferView": 3,
      "componentType": 5126,
      "count": 36544,
      "max": [
        0.999995231628418,
        0.999984622001648,
        0.9999957084655762,
        1.0
      ],
      "min": [
        -0.9999354481697083,
        -0.9999925494194031,
        -0.9999999403953552,
        -1.0
      ],
      "type": "VEC4"
    },
    {
      "bufferView": 1,
      "componentType": 5126,
      "count": 36544,
      "max": [
        0.9950466156005859,
        0.9942726492881775
      ],
      "min": [
        0.0066347308456897736,
        0.011890888214111328
      ],
      "type": "VEC2"
    },
    {
      "bufferView": 1,
      "byteOffset": 292352,
      "componentType": 5126,
      "count": 36544,
      "max": [
        0.9950466156005859,
        0.9942726492881775
      ],
      "min": [
        0.0066347308456897736,
        0.011890888214111328
      ],
      "type": "VEC2"
    },
    {
      "bufferView": 1,
      "byteOffset": 584704,
      "componentType": 5126,
      "count": 36544,
      "max": [
        0.9950466156005859,
        0.9942726492881775
      ],
      "min": [
        0.0066347308456897736,
        0.011890888214111328
      ],
      "type": "VEC2"
    },
    {
      "bufferView": 1,
      "byteOffset": 877056,
      "componentType": 5126,
      "count": 36544,
      "max": [
        0.9950466156005859,
        0.9942726492881775
      ],
      "min": [
        0.0066347308456897736,
        0.011890888214111328
      ],
      "type": "VEC2"
    },
    {
      "bufferView": 1,
      "byteOffset": 1169408,
      "componentType": 5126,
      "count": 36544,
      "max": [
        0.9950466156005859,
        0.9942726492881775
      ],
      "min": [
        0.0066347308456897736,
        0.011890888214111328
      ],
      "type": "VEC2"
    },
    {
      "bufferView": 0,
      "componentType": 5125,
      "count": 36546,
      "type": "SCALAR"
    },
    {
      "bufferView": 2,
      "byteOffset": 877056,
      "componentType": 5126,
      "count": 13206,
      "max": [
        9.552589416503906,
        17.929393768310547,
        7.236556529998779
      ],
      "min": [
        -9.748147964477539,
        1.0238664150238037,
        -11.849346160888672
      ],
      "type": "VEC3"
    },
    {
      "bufferView": 2,
      "byteOffset": 1035528,
      "componentType": 5126,
      "count": 13206,
      "max": [
        1.0,
        0.9999873638153076,
        1.0
      ],
      "min": [
        -1.0,
        -0.999981701374054,
        -1.0
      ],
      "type": "VEC3"
    },
    {
      "bufferView": 3,
      "byteOffset": 584704,
      "componentType": 5126,
      "count": 13206,
      "max": [
        1.0,
        0.9999997019767761,
        1.0,
        1.0
      ],
      "min": [
        -1.0,
        -1.0,
        -0.9999858736991882,
        -1.0
      ],
      "type": "VEC4"
    },
    {
      "bufferView": 1,
      "byteOffset": 1461760,
      "componentType": 5126,
      "count": 13206,
      "max": [
        0.9806345105171204,
        0.9898374676704407
      ],
      "min": [
        0.01112188957631588,
        0.00852590799331665
      ],
      "type": "VEC2"
    },
    {
      "bufferView": 1,
      "byteOffset": 1567408,
      "componentType": 5126,
      "count": 13206,
      "max": [
        0.9806345105171204,
        0.9898374676704407
      ],
      "min": [
        0.01112188957631588,
        0.00852590799331665
      ],
      "type": "VEC2"
    },
    {
      "bufferView": 1,
      "byteOffset": 1673056,
      "componentType": 5126,
      "count": 13206,
      "max": [
        0.9806345105171204,
        0.9898374676704407
      ],
      "min": [
        0.01112188957631588,
        0.00852590799331665
      ],
      "type": "VEC2"
    },
    {
      "bufferView": 1,
      "byteOffset": 1778704,
      "componentType": 5126,
      "count": 13206,
      "max": [
        0.9806345105171204,
        0.9898374676704407
      ],
      "min": [
        0.01112188957631588,
        0.00852590799331665
      ],
      "type": "VEC2"
    },
    {
      "bufferView": 1,
      "byteOffset": 1884352,
      "componentType": 5126,
      "count": 13206,
      "max": [
        0.9806345105171204,
        0.9898374676704407
      ],
      "min": [
        0.01112188957631588,
        0.00852590799331665
      ],
      "type": "VEC2"
    },
    {
      "bufferView": 0,
      "byteOffset": 146184,
      "componentType": 5125,
      "count": 13410,
      "type": "SCALAR"
    }
  ],
  "asset": {
    "extras": {
      "author": "Jackie Do (https://sketchfab.com/jackiedo)",
      "license": "CC-BY-4.0 (http://creativecommons.org/licenses/by/4.0/)",
      "source": "https://sketchfab.com/3d-models/gingerbread-house-4afa8f753ffd43e4b87e8543192888f0",
      "title": "Gingerbread House"
    },
    "generator": "Sketchfab-12.66.0",
    "version": "2.0"
  },
  "bufferViews": [
    {
      "buffer": 0,
      "byteLength": 199824,
      "name": "floatBufferViews",
      "target": 34963
    },
    {
      "buffer": 0,
      "byteLength": 1990000,
      "byteOffset": 199824,
      "byteStride": 8,
      "name": "floatBufferViews",
      "target": 34962
    },
    {
      "buffer": 0,
      "byteLength": 1194000,
      "byteOffset": 2189824,
      "byteStride": 12,
      "name": "floatBufferViews",
      "target": 34962
    },
    {
      "buffer": 0,
      "byteLength": 796000,
      "byteOffset": 3383824,
      "byteStride": 16,
      "name": "floatBufferViews",
      "target": 34962
    }
  ],
  "buffers": [
    {
      "byteLength": 4179824,
      "uri": "scene.bin"
    }
  ],
  "extensionsRequired": [
    "KHR_materials_pbrSpecularGlossiness"
  ],
  "extensionsUsed": [
    "KHR_materials_pbrSpecularGlossiness"
  ],
  "images": [
    {
      "uri": "textures/material_0_diffuse.png"
    },
    {
      "uri": "textures/material_0_specularGlossiness.png"
    },
    {
      "uri": "textures/material_0_normal.png"
    },
    {
      "uri": "textures/material_0_occlusion.png"
    },
    {
      "uri": "textures/material_1_diffuse.png"
    },
    {
      "uri": "textures/material_1_specularGlossiness.png"
    },
    {
      "uri": "textures/material_1_normal.png"
    },
    {
      "uri": "textures/material_1_occlusion.png"
    }
  ],
  "materials": [
    {
      "doubleSided": true,
      "extensions": {
        "KHR_materials_pbrSpecularGlossiness": {
          "diffuseFactor": [
            1.0,
            1.0,
            1.0,
            1.0
          ],
          "diffuseTexture": {
            "index": 0
          },
          "glossinessFactor": 1.0,
          "specularFactor": [
            1.0,
            1.0,
            1.0
          ],
          "specularGlossinessTexture": {
            "index": 1
          }
        }
      },
      "name": "material_0",
      "normalTexture": {
        "index": 2
      },
      "occlusionTexture": {
        "index": 3
      }
    },
    {
      "doubleSided": true,
      "extensions": {
        "KHR_materials_pbrSpecularGlossiness": {
          "diffuseFactor": [
            1.0,
            1.0,
            1.0,
            1.0
          ],
          "diffuseTexture": {
            "index": 4
          },
          "glossinessFactor": 1.0,
          "specularFactor": [
            1.0,
            1.0,
            1.0
          ],
          "specularGlossinessTexture": {
            "index": 5
          }
        }
      },
      "name": "material_1",
      "normalTexture": {
        "index": 6
      },
      "occlusionTexture": {
        "index": 7
      }
    }
  ],
  "meshes": [
    {
      "name": "Object_0",
      "primitives": [
        {
          "attributes": {
            "NORMAL": 1,
            "POSITION": 0,
            "TANGENT": 2,
            "TEXCOORD_0": 3,
            "TEXCOORD_1": 4,
            "TEXCOORD_2": 5,
            "TEXCOORD_3": 6,
            "TEXCOORD_4": 7
          },
          "indices": 8,
          "material": 0,
          "mode": 4
        }
      ]
    },
    {
      "name": "Object_1",
      "primitives": [
        {
          "attributes": {
            "NORMAL": 10,
            "POSITION": 9,
            "TANGENT": 11,
            "TEXCOORD_0": 12,
            "TEXCOORD_1": 13,
            "TEXCOORD_2": 14,
            "TEXCOORD_3": 15,
            "TEXCOORD_4": 16
          },
          "indices": 17,
          "material": 1,
          "mode": 4
        }
      ]
    }
  ],
  "nodes": [
    {
      "children": [
        1
      ],
      "matrix": [
        1.0,
        0.0,
        0.0,
        0.0,
        0.0,
        2.220446049250313e-16,
        -1.0,
        0.0,
        0.0,
        1.0,
        2.220446049250313e-16,
        0.0,
        0.0,
        0.0,
        0.0,
        1.0
      ],
      "name": "Sketchfab_model"
    },
    {
      "children": [
        2
      ],
      "name": "root"
    },
    {
      "children": [
        3
      ],
      "matrix": [
        1.0,
        0.0,
        0.0,
        0.0,
        0.0,
        2.220446049250313e-16,
        1.0,
        0.0,
        0.0,
        -1.0,
        2.220446049250313e-16,
        0.0,
        0.0,
        0.0,
        0.0,
        1.0
      ],
      "name": "GLTF_SceneRootNode"
    },
    {
      "children": [
        4
      ],
      "matrix": [
        0.009999999776482582,
        0.0,
        0.0,
        0.0,
        0.0,
        0.009999999776482582,
        0.0,
        0.0,
        0.0,
        0.0,
        0.009999999776482582,
        0.0,
        0.0,
        0.0,
        0.0,
        1.0
      ],
      "name": "RootNode.0_0"
    },
    {
      "children": [
        5,
        7
      ],
      "name": "gingerbread_house.1_1"
    },
    {
      "children": [
        6
      ],
      "name": "_2"
    },
    {
      "mesh": 0,
      "name": "Object_6"
    },
    {
      "children": [
        8
      ],
      "name": "_3"
    },
    {
      "mesh": 1,
      "name": "Object_8"
    }
  ],
  "samplers": [
    {
      "magFilter": 9729,
      "minFilter": 9987,
      "wrapS": 10497,
      "wrapT": 10497
    }
  ],
  "scene": 0,
  "scenes": [
    {
      "name": "Sketchfab_Scene",
      "nodes": [
        0
      ]
    }
  ],
  "textures": [
    {
      "sampler": 0,
      "source": 0
    },
    {
      "sampler": 0,
      "source": 1
    },
    {
      "sampler": 0,
      "source": 2
    },
    {
      "sampler": 0,
      "source": 3
    },
    {
      "sampler": 0,
      "source": 4
    },
    {
      "sampler": 0,
      "source": 5
    },
    {
      "sampler": 0,
      "source": 6
    },
    {
      "sampler": 0,
      "source": 7
    }
  ]
}
